<mxfile host="app.diagrams.net" modified="2022-07-17T12:38:24.131Z" agent="5.0 (Macintosh; Intel Mac OS X 10_15_7) AppleWebKit/537.36 (KHTML, like Gecko) Chrome/103.0.0.0 Safari/537.36" etag="2_VUAovRSYiVMgXybYUF" version="20.1.1" type="github">
  <diagram id="C5RBs43oDa-KdzZeNtuy" name="Page-1">
    <mxGraphModel dx="946" dy="1673" grid="1" gridSize="10" guides="1" tooltips="1" connect="1" arrows="1" fold="1" page="1" pageScale="1" pageWidth="827" pageHeight="1169" math="0" shadow="0">
      <root>
        <mxCell id="WIyWlLk6GJQsqaUBKTNV-0" />
        <mxCell id="WIyWlLk6GJQsqaUBKTNV-1" parent="WIyWlLk6GJQsqaUBKTNV-0" />
        <mxCell id="3UhpRsMbbu9_3w0wm78r-3" value="Amazon DynamoDB" style="sketch=0;outlineConnect=0;fontColor=#232F3E;gradientColor=none;strokeColor=#ffffff;fillColor=#232F3E;dashed=0;verticalLabelPosition=middle;verticalAlign=bottom;align=center;html=1;whiteSpace=wrap;fontSize=10;fontStyle=1;spacing=3;shape=mxgraph.aws4.productIcon;prIcon=mxgraph.aws4.dynamodb;" vertex="1" parent="WIyWlLk6GJQsqaUBKTNV-1">
          <mxGeometry x="353" y="-79" width="80" height="110" as="geometry" />
        </mxCell>
        <mxCell id="3UhpRsMbbu9_3w0wm78r-4" value="Amazon SageMaker" style="sketch=0;outlineConnect=0;fontColor=#232F3E;gradientColor=none;strokeColor=#ffffff;fillColor=#232F3E;dashed=0;verticalLabelPosition=middle;verticalAlign=bottom;align=center;html=1;whiteSpace=wrap;fontSize=10;fontStyle=1;spacing=3;shape=mxgraph.aws4.productIcon;prIcon=mxgraph.aws4.sagemaker;" vertex="1" parent="WIyWlLk6GJQsqaUBKTNV-1">
          <mxGeometry x="613" y="83" width="80" height="110" as="geometry" />
        </mxCell>
        <mxCell id="3UhpRsMbbu9_3w0wm78r-10" value="" style="edgeStyle=orthogonalEdgeStyle;rounded=0;orthogonalLoop=1;jettySize=auto;html=1;" edge="1" parent="WIyWlLk6GJQsqaUBKTNV-1" source="3UhpRsMbbu9_3w0wm78r-5" target="3UhpRsMbbu9_3w0wm78r-3">
          <mxGeometry relative="1" as="geometry" />
        </mxCell>
        <mxCell id="3UhpRsMbbu9_3w0wm78r-16" value="" style="edgeStyle=orthogonalEdgeStyle;rounded=0;orthogonalLoop=1;jettySize=auto;html=1;" edge="1" parent="WIyWlLk6GJQsqaUBKTNV-1" source="3UhpRsMbbu9_3w0wm78r-5" target="3UhpRsMbbu9_3w0wm78r-4">
          <mxGeometry relative="1" as="geometry" />
        </mxCell>
        <mxCell id="3UhpRsMbbu9_3w0wm78r-19" value="" style="edgeStyle=orthogonalEdgeStyle;rounded=0;orthogonalLoop=1;jettySize=auto;html=1;" edge="1" parent="WIyWlLk6GJQsqaUBKTNV-1" source="3UhpRsMbbu9_3w0wm78r-5" target="3UhpRsMbbu9_3w0wm78r-18">
          <mxGeometry relative="1" as="geometry" />
        </mxCell>
        <mxCell id="3UhpRsMbbu9_3w0wm78r-5" value="AWS Fargate" style="sketch=0;outlineConnect=0;fontColor=#232F3E;gradientColor=none;strokeColor=#ffffff;fillColor=#232F3E;dashed=0;verticalLabelPosition=middle;verticalAlign=bottom;align=center;html=1;whiteSpace=wrap;fontSize=10;fontStyle=1;spacing=3;shape=mxgraph.aws4.productIcon;prIcon=mxgraph.aws4.fargate;" vertex="1" parent="WIyWlLk6GJQsqaUBKTNV-1">
          <mxGeometry x="353" y="88" width="80" height="100" as="geometry" />
        </mxCell>
        <mxCell id="3UhpRsMbbu9_3w0wm78r-8" value="" style="endArrow=classic;html=1;rounded=0;" edge="1" parent="WIyWlLk6GJQsqaUBKTNV-1">
          <mxGeometry width="50" height="50" relative="1" as="geometry">
            <mxPoint x="233" y="129" as="sourcePoint" />
            <mxPoint x="353" y="129" as="targetPoint" />
            <Array as="points">
              <mxPoint x="223" y="130" />
            </Array>
          </mxGeometry>
        </mxCell>
        <mxCell id="3UhpRsMbbu9_3w0wm78r-32" value="" style="edgeStyle=orthogonalEdgeStyle;rounded=0;orthogonalLoop=1;jettySize=auto;html=1;" edge="1" parent="WIyWlLk6GJQsqaUBKTNV-1" source="3UhpRsMbbu9_3w0wm78r-14" target="3UhpRsMbbu9_3w0wm78r-31">
          <mxGeometry relative="1" as="geometry" />
        </mxCell>
        <mxCell id="3UhpRsMbbu9_3w0wm78r-14" value="AWS Lambda" style="sketch=0;outlineConnect=0;fontColor=#232F3E;gradientColor=none;strokeColor=#ffffff;fillColor=#232F3E;dashed=0;verticalLabelPosition=middle;verticalAlign=bottom;align=center;html=1;whiteSpace=wrap;fontSize=10;fontStyle=1;spacing=3;shape=mxgraph.aws4.productIcon;prIcon=mxgraph.aws4.lambda;" vertex="1" parent="WIyWlLk6GJQsqaUBKTNV-1">
          <mxGeometry x="633" y="247" width="80" height="100" as="geometry" />
        </mxCell>
        <mxCell id="3UhpRsMbbu9_3w0wm78r-17" value="Amazon Kinesis Video Streams" style="sketch=0;outlineConnect=0;fontColor=#232F3E;gradientColor=none;strokeColor=#ffffff;fillColor=#232F3E;dashed=0;verticalLabelPosition=middle;verticalAlign=bottom;align=center;html=1;whiteSpace=wrap;fontSize=10;fontStyle=1;spacing=3;shape=mxgraph.aws4.productIcon;prIcon=mxgraph.aws4.kinesis_video_streams;" vertex="1" parent="WIyWlLk6GJQsqaUBKTNV-1">
          <mxGeometry x="140" y="68" width="80" height="120" as="geometry" />
        </mxCell>
        <mxCell id="3UhpRsMbbu9_3w0wm78r-23" value="" style="edgeStyle=orthogonalEdgeStyle;rounded=0;orthogonalLoop=1;jettySize=auto;html=1;entryX=0;entryY=0.5;entryDx=0;entryDy=0;entryPerimeter=0;" edge="1" parent="WIyWlLk6GJQsqaUBKTNV-1" source="3UhpRsMbbu9_3w0wm78r-18" target="3UhpRsMbbu9_3w0wm78r-14">
          <mxGeometry relative="1" as="geometry">
            <mxPoint x="583" y="304" as="targetPoint" />
          </mxGeometry>
        </mxCell>
        <mxCell id="3UhpRsMbbu9_3w0wm78r-18" value="Amazon Kinesis Data Streams" style="sketch=0;outlineConnect=0;fontColor=#232F3E;gradientColor=none;strokeColor=#ffffff;fillColor=#232F3E;dashed=0;verticalLabelPosition=middle;verticalAlign=bottom;align=center;html=1;whiteSpace=wrap;fontSize=10;fontStyle=1;spacing=3;shape=mxgraph.aws4.productIcon;prIcon=mxgraph.aws4.kinesis_data_streams;" vertex="1" parent="WIyWlLk6GJQsqaUBKTNV-1">
          <mxGeometry x="353" y="237" width="80" height="120" as="geometry" />
        </mxCell>
        <mxCell id="3UhpRsMbbu9_3w0wm78r-24" value="1. Video streams in &lt;br&gt;real-time&amp;nbsp;" style="text;html=1;resizable=0;autosize=1;align=center;verticalAlign=middle;points=[];fillColor=none;strokeColor=none;rounded=0;" vertex="1" parent="WIyWlLk6GJQsqaUBKTNV-1">
          <mxGeometry x="221" y="88" width="130" height="40" as="geometry" />
        </mxCell>
        <mxCell id="3UhpRsMbbu9_3w0wm78r-25" value="2. Stream Processing &lt;br&gt;Status Checkpoint" style="text;html=1;resizable=0;autosize=1;align=center;verticalAlign=middle;points=[];fillColor=none;strokeColor=none;rounded=0;" vertex="1" parent="WIyWlLk6GJQsqaUBKTNV-1">
          <mxGeometry x="403" y="33" width="140" height="40" as="geometry" />
        </mxCell>
        <mxCell id="3UhpRsMbbu9_3w0wm78r-26" value="3. Send decoded frames &lt;br&gt;for ML based inference" style="text;html=1;resizable=0;autosize=1;align=center;verticalAlign=middle;points=[];fillColor=none;strokeColor=none;rounded=0;" vertex="1" parent="WIyWlLk6GJQsqaUBKTNV-1">
          <mxGeometry x="447" y="98" width="150" height="40" as="geometry" />
        </mxCell>
        <mxCell id="3UhpRsMbbu9_3w0wm78r-27" value="4. Publish Inference&lt;br&gt;&amp;nbsp;results" style="text;html=1;resizable=0;autosize=1;align=center;verticalAlign=middle;points=[];fillColor=none;strokeColor=none;rounded=0;" vertex="1" parent="WIyWlLk6GJQsqaUBKTNV-1">
          <mxGeometry x="273" y="200" width="130" height="40" as="geometry" />
        </mxCell>
        <mxCell id="3UhpRsMbbu9_3w0wm78r-28" value="5. Trigger even&amp;nbsp;&lt;br&gt;consumption" style="text;html=1;resizable=0;autosize=1;align=center;verticalAlign=middle;points=[];fillColor=none;strokeColor=none;rounded=0;" vertex="1" parent="WIyWlLk6GJQsqaUBKTNV-1">
          <mxGeometry x="508" y="300" width="110" height="40" as="geometry" />
        </mxCell>
        <mxCell id="3UhpRsMbbu9_3w0wm78r-31" value="Amazon Simple Email Service" style="sketch=0;outlineConnect=0;fontColor=#232F3E;gradientColor=none;strokeColor=#ffffff;fillColor=#232F3E;dashed=0;verticalLabelPosition=middle;verticalAlign=bottom;align=center;html=1;whiteSpace=wrap;fontSize=10;fontStyle=1;spacing=3;shape=mxgraph.aws4.productIcon;prIcon=mxgraph.aws4.simple_email_service;" vertex="1" parent="WIyWlLk6GJQsqaUBKTNV-1">
          <mxGeometry x="633" y="406" width="80" height="110" as="geometry" />
        </mxCell>
        <mxCell id="3UhpRsMbbu9_3w0wm78r-34" value="6. Email Notification &lt;br&gt;if&amp;nbsp; human found" style="text;html=1;resizable=0;autosize=1;align=center;verticalAlign=middle;points=[];fillColor=none;strokeColor=none;rounded=0;" vertex="1" parent="WIyWlLk6GJQsqaUBKTNV-1">
          <mxGeometry x="683" y="354" width="130" height="40" as="geometry" />
        </mxCell>
        <mxCell id="3UhpRsMbbu9_3w0wm78r-40" value="" style="points=[];aspect=fixed;html=1;align=center;shadow=0;dashed=0;image;image=img/lib/allied_telesis/security/Surveillance_Camera_Ceiling.svg;" vertex="1" parent="WIyWlLk6GJQsqaUBKTNV-1">
          <mxGeometry x="260" y="110" width="37.2" height="35.4" as="geometry" />
        </mxCell>
        <mxCell id="3UhpRsMbbu9_3w0wm78r-46" value="" style="group" vertex="1" connectable="0" parent="WIyWlLk6GJQsqaUBKTNV-1">
          <mxGeometry x="56" y="-20" width="37.2" height="295.4" as="geometry" />
        </mxCell>
        <mxCell id="3UhpRsMbbu9_3w0wm78r-39" value="" style="points=[];aspect=fixed;html=1;align=center;shadow=0;dashed=0;image;image=img/lib/allied_telesis/security/Surveillance_Camera_Ceiling.svg;" vertex="1" parent="3UhpRsMbbu9_3w0wm78r-46">
          <mxGeometry width="37.2" height="35.4" as="geometry" />
        </mxCell>
        <mxCell id="3UhpRsMbbu9_3w0wm78r-41" value="" style="points=[];aspect=fixed;html=1;align=center;shadow=0;dashed=0;image;image=img/lib/allied_telesis/security/Surveillance_Camera_Ceiling.svg;" vertex="1" parent="3UhpRsMbbu9_3w0wm78r-46">
          <mxGeometry y="83" width="37.2" height="35.4" as="geometry" />
        </mxCell>
        <mxCell id="3UhpRsMbbu9_3w0wm78r-42" value="" style="points=[];aspect=fixed;html=1;align=center;shadow=0;dashed=0;image;image=img/lib/allied_telesis/security/Surveillance_Camera_Ceiling.svg;" vertex="1" parent="3UhpRsMbbu9_3w0wm78r-46">
          <mxGeometry y="165" width="37.2" height="35.4" as="geometry" />
        </mxCell>
        <mxCell id="3UhpRsMbbu9_3w0wm78r-44" value="" style="points=[];aspect=fixed;html=1;align=center;shadow=0;dashed=0;image;image=img/lib/allied_telesis/security/Surveillance_Camera_Ceiling.svg;" vertex="1" parent="3UhpRsMbbu9_3w0wm78r-46">
          <mxGeometry y="260" width="37.2" height="35.4" as="geometry" />
        </mxCell>
        <mxCell id="3UhpRsMbbu9_3w0wm78r-48" value="" style="edgeStyle=orthogonalEdgeStyle;rounded=0;orthogonalLoop=1;jettySize=auto;html=1;" edge="1" parent="WIyWlLk6GJQsqaUBKTNV-1" source="3UhpRsMbbu9_3w0wm78r-41" target="3UhpRsMbbu9_3w0wm78r-17">
          <mxGeometry relative="1" as="geometry" />
        </mxCell>
        <mxCell id="3UhpRsMbbu9_3w0wm78r-49" style="edgeStyle=orthogonalEdgeStyle;rounded=0;orthogonalLoop=1;jettySize=auto;html=1;" edge="1" parent="WIyWlLk6GJQsqaUBKTNV-1" source="3UhpRsMbbu9_3w0wm78r-44" target="3UhpRsMbbu9_3w0wm78r-17">
          <mxGeometry relative="1" as="geometry" />
        </mxCell>
        <mxCell id="3UhpRsMbbu9_3w0wm78r-50" style="edgeStyle=orthogonalEdgeStyle;rounded=0;orthogonalLoop=1;jettySize=auto;html=1;" edge="1" parent="WIyWlLk6GJQsqaUBKTNV-1" source="3UhpRsMbbu9_3w0wm78r-39" target="3UhpRsMbbu9_3w0wm78r-17">
          <mxGeometry relative="1" as="geometry" />
        </mxCell>
        <mxCell id="3UhpRsMbbu9_3w0wm78r-51" style="edgeStyle=orthogonalEdgeStyle;rounded=0;orthogonalLoop=1;jettySize=auto;html=1;" edge="1" parent="WIyWlLk6GJQsqaUBKTNV-1" source="3UhpRsMbbu9_3w0wm78r-42" target="3UhpRsMbbu9_3w0wm78r-17">
          <mxGeometry relative="1" as="geometry" />
        </mxCell>
        <mxCell id="3UhpRsMbbu9_3w0wm78r-52" value="RTSP" style="text;html=1;resizable=0;autosize=1;align=center;verticalAlign=middle;points=[];fillColor=none;strokeColor=none;rounded=0;" vertex="1" parent="WIyWlLk6GJQsqaUBKTNV-1">
          <mxGeometry x="120" y="-30" width="60" height="30" as="geometry" />
        </mxCell>
      </root>
    </mxGraphModel>
  </diagram>
</mxfile>
